<mxfile host="Electron" modified="2023-06-13T15:07:55.440Z" agent="Mozilla/5.0 (Windows NT 10.0; Win64; x64) AppleWebKit/537.36 (KHTML, like Gecko) draw.io/21.1.2 Chrome/106.0.5249.199 Electron/21.4.3 Safari/537.36" etag="_rjREvqn2OMA72ciNwkK" version="21.1.2" type="device">
  <diagram name="第 1 页" id="-0qYh_dvaI7o4lYcRRoY">
    <mxGraphModel dx="629" dy="401" grid="1" gridSize="10" guides="1" tooltips="1" connect="1" arrows="1" fold="1" page="1" pageScale="1" pageWidth="690" pageHeight="980" math="0" shadow="0">
      <root>
        <mxCell id="0" />
        <mxCell id="1" parent="0" />
        <mxCell id="4w2iu8SDgIGUC90tLzDA-1" value="&lt;b style=&quot;font-size: 18px;&quot;&gt;handshake&lt;br&gt;pipe&lt;/b&gt;" style="rounded=1;whiteSpace=wrap;html=1;fillColor=#f8cecc;strokeColor=#b85450;" vertex="1" parent="1">
          <mxGeometry x="281" y="180" width="120" height="100" as="geometry" />
        </mxCell>
        <mxCell id="4w2iu8SDgIGUC90tLzDA-2" value="" style="endArrow=classic;html=1;rounded=0;" edge="1" parent="1">
          <mxGeometry width="50" height="50" relative="1" as="geometry">
            <mxPoint x="181" y="230" as="sourcePoint" />
            <mxPoint x="281" y="230" as="targetPoint" />
          </mxGeometry>
        </mxCell>
        <mxCell id="4w2iu8SDgIGUC90tLzDA-3" value="&lt;font style=&quot;font-size: 15px;&quot;&gt;data&lt;/font&gt;" style="edgeLabel;html=1;align=center;verticalAlign=middle;resizable=0;points=[];" vertex="1" connectable="0" parent="4w2iu8SDgIGUC90tLzDA-2">
          <mxGeometry x="0.2038" y="1" relative="1" as="geometry">
            <mxPoint x="-10" y="1" as="offset" />
          </mxGeometry>
        </mxCell>
        <mxCell id="4w2iu8SDgIGUC90tLzDA-4" value="" style="endArrow=classic;html=1;rounded=0;" edge="1" parent="1">
          <mxGeometry width="50" height="50" relative="1" as="geometry">
            <mxPoint x="181" y="209" as="sourcePoint" />
            <mxPoint x="281" y="209" as="targetPoint" />
          </mxGeometry>
        </mxCell>
        <mxCell id="4w2iu8SDgIGUC90tLzDA-5" value="&lt;font style=&quot;font-size: 15px;&quot;&gt;valid&lt;/font&gt;" style="edgeLabel;html=1;align=center;verticalAlign=middle;resizable=0;points=[];" vertex="1" connectable="0" parent="4w2iu8SDgIGUC90tLzDA-4">
          <mxGeometry x="0.2038" y="1" relative="1" as="geometry">
            <mxPoint x="-10" as="offset" />
          </mxGeometry>
        </mxCell>
        <mxCell id="4w2iu8SDgIGUC90tLzDA-6" value="" style="endArrow=classic;html=1;rounded=0;" edge="1" parent="1">
          <mxGeometry width="50" height="50" relative="1" as="geometry">
            <mxPoint x="280" y="251" as="sourcePoint" />
            <mxPoint x="180" y="251" as="targetPoint" />
            <Array as="points">
              <mxPoint x="231" y="251" />
            </Array>
          </mxGeometry>
        </mxCell>
        <mxCell id="4w2iu8SDgIGUC90tLzDA-7" value="&lt;font style=&quot;font-size: 15px;&quot;&gt;ready&lt;/font&gt;" style="edgeLabel;html=1;align=center;verticalAlign=middle;resizable=0;points=[];" vertex="1" connectable="0" parent="4w2iu8SDgIGUC90tLzDA-6">
          <mxGeometry x="0.2038" y="1" relative="1" as="geometry">
            <mxPoint x="15" y="-1" as="offset" />
          </mxGeometry>
        </mxCell>
        <mxCell id="4w2iu8SDgIGUC90tLzDA-8" value="" style="endArrow=classic;html=1;rounded=0;" edge="1" parent="1">
          <mxGeometry width="50" height="50" relative="1" as="geometry">
            <mxPoint x="402" y="229.8" as="sourcePoint" />
            <mxPoint x="502" y="229.8" as="targetPoint" />
          </mxGeometry>
        </mxCell>
        <mxCell id="4w2iu8SDgIGUC90tLzDA-9" value="&lt;font style=&quot;font-size: 15px;&quot;&gt;data&lt;/font&gt;" style="edgeLabel;html=1;align=center;verticalAlign=middle;resizable=0;points=[];" vertex="1" connectable="0" parent="4w2iu8SDgIGUC90tLzDA-8">
          <mxGeometry x="0.2038" y="1" relative="1" as="geometry">
            <mxPoint x="-10" y="1" as="offset" />
          </mxGeometry>
        </mxCell>
        <mxCell id="4w2iu8SDgIGUC90tLzDA-10" value="" style="endArrow=classic;html=1;rounded=0;" edge="1" parent="1">
          <mxGeometry width="50" height="50" relative="1" as="geometry">
            <mxPoint x="402" y="208.8" as="sourcePoint" />
            <mxPoint x="502" y="208.8" as="targetPoint" />
          </mxGeometry>
        </mxCell>
        <mxCell id="4w2iu8SDgIGUC90tLzDA-11" value="&lt;font style=&quot;font-size: 15px;&quot;&gt;valid&lt;/font&gt;" style="edgeLabel;html=1;align=center;verticalAlign=middle;resizable=0;points=[];" vertex="1" connectable="0" parent="4w2iu8SDgIGUC90tLzDA-10">
          <mxGeometry x="0.2038" y="1" relative="1" as="geometry">
            <mxPoint x="-10" as="offset" />
          </mxGeometry>
        </mxCell>
        <mxCell id="4w2iu8SDgIGUC90tLzDA-12" value="" style="endArrow=classic;html=1;rounded=0;" edge="1" parent="1">
          <mxGeometry width="50" height="50" relative="1" as="geometry">
            <mxPoint x="501" y="250.8" as="sourcePoint" />
            <mxPoint x="401" y="250.8" as="targetPoint" />
            <Array as="points">
              <mxPoint x="452" y="250.8" />
            </Array>
          </mxGeometry>
        </mxCell>
        <mxCell id="4w2iu8SDgIGUC90tLzDA-13" value="&lt;font style=&quot;font-size: 15px;&quot;&gt;ready&lt;/font&gt;" style="edgeLabel;html=1;align=center;verticalAlign=middle;resizable=0;points=[];" vertex="1" connectable="0" parent="4w2iu8SDgIGUC90tLzDA-12">
          <mxGeometry x="0.2038" y="1" relative="1" as="geometry">
            <mxPoint x="15" y="-1" as="offset" />
          </mxGeometry>
        </mxCell>
        <mxCell id="4w2iu8SDgIGUC90tLzDA-14" value="&lt;b&gt;&lt;font color=&quot;#63c580&quot; style=&quot;font-size: 16px;&quot;&gt;Port A&lt;/font&gt;&lt;/b&gt;" style="text;html=1;strokeColor=none;fillColor=none;align=center;verticalAlign=middle;whiteSpace=wrap;rounded=0;" vertex="1" parent="1">
          <mxGeometry x="201" y="160" width="60" height="30" as="geometry" />
        </mxCell>
        <mxCell id="4w2iu8SDgIGUC90tLzDA-15" value="&lt;b&gt;&lt;font color=&quot;#c4c700&quot; style=&quot;font-size: 16px;&quot;&gt;Port B&lt;/font&gt;&lt;/b&gt;" style="text;html=1;strokeColor=none;fillColor=none;align=center;verticalAlign=middle;whiteSpace=wrap;rounded=0;" vertex="1" parent="1">
          <mxGeometry x="421" y="160" width="60" height="30" as="geometry" />
        </mxCell>
        <mxCell id="4w2iu8SDgIGUC90tLzDA-16" value="&lt;span style=&quot;font-size: 18px;&quot;&gt;&lt;b&gt;FIFO&lt;/b&gt;&lt;/span&gt;" style="rounded=1;whiteSpace=wrap;html=1;fillColor=#dae8fc;strokeColor=#6c8ebf;" vertex="1" parent="1">
          <mxGeometry x="281" y="330" width="120" height="100" as="geometry" />
        </mxCell>
        <mxCell id="4w2iu8SDgIGUC90tLzDA-17" value="" style="endArrow=classic;html=1;rounded=0;" edge="1" parent="1">
          <mxGeometry width="50" height="50" relative="1" as="geometry">
            <mxPoint x="181" y="380" as="sourcePoint" />
            <mxPoint x="281" y="380" as="targetPoint" />
          </mxGeometry>
        </mxCell>
        <mxCell id="4w2iu8SDgIGUC90tLzDA-18" value="&lt;font style=&quot;font-size: 15px;&quot;&gt;data&lt;/font&gt;" style="edgeLabel;html=1;align=center;verticalAlign=middle;resizable=0;points=[];" vertex="1" connectable="0" parent="4w2iu8SDgIGUC90tLzDA-17">
          <mxGeometry x="0.2038" y="1" relative="1" as="geometry">
            <mxPoint x="-10" y="1" as="offset" />
          </mxGeometry>
        </mxCell>
        <mxCell id="4w2iu8SDgIGUC90tLzDA-19" value="" style="endArrow=classic;html=1;rounded=0;" edge="1" parent="1">
          <mxGeometry width="50" height="50" relative="1" as="geometry">
            <mxPoint x="181" y="359" as="sourcePoint" />
            <mxPoint x="281" y="359" as="targetPoint" />
          </mxGeometry>
        </mxCell>
        <mxCell id="4w2iu8SDgIGUC90tLzDA-20" value="&lt;font style=&quot;font-size: 15px;&quot;&gt;enq&lt;/font&gt;" style="edgeLabel;html=1;align=center;verticalAlign=middle;resizable=0;points=[];" vertex="1" connectable="0" parent="4w2iu8SDgIGUC90tLzDA-19">
          <mxGeometry x="0.2038" y="1" relative="1" as="geometry">
            <mxPoint x="-10" as="offset" />
          </mxGeometry>
        </mxCell>
        <mxCell id="4w2iu8SDgIGUC90tLzDA-21" value="" style="endArrow=classic;html=1;rounded=0;" edge="1" parent="1">
          <mxGeometry width="50" height="50" relative="1" as="geometry">
            <mxPoint x="280" y="401" as="sourcePoint" />
            <mxPoint x="180" y="401" as="targetPoint" />
            <Array as="points">
              <mxPoint x="231" y="401" />
            </Array>
          </mxGeometry>
        </mxCell>
        <mxCell id="4w2iu8SDgIGUC90tLzDA-22" value="&lt;font style=&quot;font-size: 15px;&quot;&gt;notFull&lt;/font&gt;" style="edgeLabel;html=1;align=center;verticalAlign=middle;resizable=0;points=[];" vertex="1" connectable="0" parent="4w2iu8SDgIGUC90tLzDA-21">
          <mxGeometry x="0.2038" y="1" relative="1" as="geometry">
            <mxPoint x="15" y="-1" as="offset" />
          </mxGeometry>
        </mxCell>
        <mxCell id="4w2iu8SDgIGUC90tLzDA-23" value="" style="endArrow=classic;html=1;rounded=0;" edge="1" parent="1">
          <mxGeometry width="50" height="50" relative="1" as="geometry">
            <mxPoint x="402" y="379.8" as="sourcePoint" />
            <mxPoint x="502" y="379.8" as="targetPoint" />
          </mxGeometry>
        </mxCell>
        <mxCell id="4w2iu8SDgIGUC90tLzDA-24" value="&lt;font style=&quot;font-size: 15px;&quot;&gt;data&lt;/font&gt;" style="edgeLabel;html=1;align=center;verticalAlign=middle;resizable=0;points=[];" vertex="1" connectable="0" parent="4w2iu8SDgIGUC90tLzDA-23">
          <mxGeometry x="0.2038" y="1" relative="1" as="geometry">
            <mxPoint x="-10" y="1" as="offset" />
          </mxGeometry>
        </mxCell>
        <mxCell id="4w2iu8SDgIGUC90tLzDA-25" value="" style="endArrow=classic;html=1;rounded=0;" edge="1" parent="1">
          <mxGeometry width="50" height="50" relative="1" as="geometry">
            <mxPoint x="402" y="358.8" as="sourcePoint" />
            <mxPoint x="502" y="358.8" as="targetPoint" />
          </mxGeometry>
        </mxCell>
        <mxCell id="4w2iu8SDgIGUC90tLzDA-26" value="&lt;span style=&quot;font-size: 15px;&quot;&gt;notEmpty&lt;/span&gt;" style="edgeLabel;html=1;align=center;verticalAlign=middle;resizable=0;points=[];" vertex="1" connectable="0" parent="4w2iu8SDgIGUC90tLzDA-25">
          <mxGeometry x="0.2038" y="1" relative="1" as="geometry">
            <mxPoint x="-10" as="offset" />
          </mxGeometry>
        </mxCell>
        <mxCell id="4w2iu8SDgIGUC90tLzDA-27" value="" style="endArrow=classic;html=1;rounded=0;" edge="1" parent="1">
          <mxGeometry width="50" height="50" relative="1" as="geometry">
            <mxPoint x="501" y="400.8" as="sourcePoint" />
            <mxPoint x="401" y="400.8" as="targetPoint" />
            <Array as="points">
              <mxPoint x="452" y="400.8" />
            </Array>
          </mxGeometry>
        </mxCell>
        <mxCell id="4w2iu8SDgIGUC90tLzDA-28" value="&lt;span style=&quot;font-size: 15px;&quot;&gt;deq&lt;/span&gt;" style="edgeLabel;html=1;align=center;verticalAlign=middle;resizable=0;points=[];" vertex="1" connectable="0" parent="4w2iu8SDgIGUC90tLzDA-27">
          <mxGeometry x="0.2038" y="1" relative="1" as="geometry">
            <mxPoint x="15" y="-1" as="offset" />
          </mxGeometry>
        </mxCell>
        <mxCell id="4w2iu8SDgIGUC90tLzDA-29" value="&lt;font color=&quot;#63c580&quot;&gt;&lt;span style=&quot;font-size: 16px;&quot;&gt;&lt;b&gt;Input&lt;/b&gt;&lt;/span&gt;&lt;/font&gt;" style="text;html=1;strokeColor=none;fillColor=none;align=center;verticalAlign=middle;whiteSpace=wrap;rounded=0;" vertex="1" parent="1">
          <mxGeometry x="201" y="310" width="60" height="30" as="geometry" />
        </mxCell>
        <mxCell id="4w2iu8SDgIGUC90tLzDA-30" value="&lt;b&gt;&lt;font color=&quot;#c4c700&quot; style=&quot;font-size: 16px;&quot;&gt;Output&lt;/font&gt;&lt;/b&gt;" style="text;html=1;strokeColor=none;fillColor=none;align=center;verticalAlign=middle;whiteSpace=wrap;rounded=0;" vertex="1" parent="1">
          <mxGeometry x="421" y="310" width="60" height="30" as="geometry" />
        </mxCell>
      </root>
    </mxGraphModel>
  </diagram>
</mxfile>
